<?xml version="1.0" encoding="utf-8"?>
<!-- Generator: Adobe Illustrator 16.0.0, SVG Export Plug-In . SVG Version: 6.00 Build 0)  -->
<!DOCTYPE svg PUBLIC "-//W3C//DTD SVG 1.1//EN" "http://www.w3.org/Graphics/SVG/1.1/DTD/svg11.dtd">
<svg version="1.1" id="Layer_1" xmlns="http://www.w3.org/2000/svg" xmlns:xlink="http://www.w3.org/1999/xlink" x="0px" y="0px"
	 width="54px" height="44px" viewBox="0 0 54 44" enable-background="new 0 0 54 44" xml:space="preserve">
<title>arrow</title>
<g>
	<path fill="#B8BECA" d="M9.3,0.3L7.9,1.7L12.2,6H0v2h12.2l-4.3,4.3l1.4,1.4L16,7L9.3,0.3z M6.7,43.7l1.4-1.4L3.8,38H16v-2H3.8
		l4.3-4.3l-1.4-1.4L0,37L6.7,43.7z"/>
	<path fill="#197BF4" d="M47.3,0.3L45.9,1.7L50.2,6H38v2h12.2l-4.3,4.3l1.399,1.4L54,7L47.3,0.3z M44.7,43.7l1.399-1.4L41.8,38H54
		v-2H41.8l4.3-4.3L44.7,30.3L38,37L44.7,43.7z"/>
</g>
</svg>
